<svg width="73" height="72" viewBox="0 0 73 72" fill="none" xmlns="http://www.w3.org/2000/svg">
<g clip-path="url(#clip0_2699_565)">
<g clip-path="url(#clip1_2699_565)">
<g clip-path="url(#clip2_2699_565)">
<g clip-path="url(#clip3_2699_565)">
<path d="M67.1717 37.7429C66.9548 36.613 65.9666 35.7959 64.8161 35.7953H62.4989L62.3285 34.7741C62.1585 33.7484 61.3504 32.947 60.3233 32.7857C60.0953 32.7497 59.8649 32.7257 59.6381 32.6945C60.031 30.8599 59.7046 28.9445 58.7261 27.3437C59.243 26.0026 59.1466 24.5024 58.462 23.2387C57.7775 21.9749 56.5737 21.0745 55.1681 20.7749C54.2694 15.9653 50.0852 12.4691 45.1925 12.4397C45.0725 12.4397 44.9657 12.4553 44.8517 12.4589C44.0699 11.2311 42.7809 10.4162 41.3365 10.2366C39.8921 10.0569 38.4428 10.5312 37.3841 11.5301C36.0503 10.6631 34.494 10.2009 32.9033 10.1993C30.3401 10.2098 27.9245 11.3994 26.3537 13.4249C24.6095 12.9163 22.7287 13.2286 21.2425 14.2735C19.7563 15.3185 18.826 16.9827 18.7145 18.7961C16.8825 19.5662 15.6904 21.3592 15.6893 23.3465C15.693 23.691 15.7332 24.0341 15.8093 24.3701C14.1891 26.8125 13.7658 29.8584 14.6585 32.6501C14.3369 32.6945 14.0081 32.7341 13.6985 32.7797C12.666 32.9354 11.8507 33.7372 11.6777 34.7669L11.5073 35.7917H9.18406C8.03548 35.7925 7.04847 36.6069 6.82966 37.7345L1.57486 64.7129C1.36965 65.7694 1.64793 66.8624 2.33344 67.6922C3.01895 68.5219 4.03976 69.0014 5.11606 68.9993H30.1409C31.1345 70.6385 34.1537 71.3993 37.0001 71.3993C39.8165 71.3993 42.8069 70.6565 43.8293 68.9993H68.8841C69.9601 69.0014 70.9807 68.522 71.6661 67.6925C72.3516 66.8631 72.6301 65.7705 72.4253 64.7141L67.1717 37.7429ZM19.3181 25.5185C18.3437 24.9326 17.8787 23.7697 18.1806 22.6736C18.4824 21.5775 19.4772 20.8165 20.6141 20.8121C21.4097 20.8097 22.1585 21.1879 22.6289 21.8297C22.8844 22.1739 23.3041 22.3557 23.73 22.3066C24.1559 22.2574 24.5233 21.9848 24.6936 21.5914C24.864 21.198 24.8116 20.7435 24.5561 20.3993C23.7412 19.3102 22.5064 18.6135 21.1529 18.4793C21.5106 16.7987 22.9926 15.5956 24.7109 15.5909C24.8573 15.5983 25.0031 15.6143 25.1477 15.6389C25.0511 15.8849 24.967 16.1356 24.8957 16.3901C24.7463 17.0253 25.1319 17.6634 25.7637 17.8266C26.3955 17.9898 27.0419 17.6182 27.2189 16.9901C27.3553 16.4627 27.565 15.9569 27.8417 15.4877C28.9061 13.7044 30.8265 12.6086 32.9033 12.5993C34.0335 12.6043 35.138 12.9378 36.0821 13.5593C35.9022 14.0646 35.8069 14.5961 35.8001 15.1325C35.8001 15.7952 36.3373 16.3325 37.0001 16.3325C37.6628 16.3325 38.2001 15.7952 38.2001 15.1325C38.2001 13.7384 39.3302 12.6083 40.7243 12.6083C42.1183 12.6083 43.2485 13.7384 43.2485 15.1325C43.2485 15.7952 43.7857 16.3325 44.4485 16.3325C45.1112 16.3325 45.6485 15.7952 45.6485 15.1325C45.6485 15.0401 45.6257 14.9525 45.6209 14.8601C49.0569 15.0721 51.9462 17.5145 52.7273 20.8673C52.1675 21.0302 51.6416 21.2924 51.1745 21.6413C50.8315 21.8985 50.6518 22.3192 50.7031 22.7448C50.7544 23.1705 51.0288 23.5364 51.4231 23.7048C51.8173 23.8732 52.2715 23.8185 52.6145 23.5613C53.5734 22.8513 54.898 22.9079 55.7929 23.6971C56.6877 24.4863 56.9094 25.7935 56.3249 26.8337C56.0636 27.293 55.6667 27.6602 55.1885 27.8849C54.687 28.1277 54.4186 28.6838 54.5405 29.2275C54.6624 29.7712 55.1425 30.1594 55.6997 30.1649C55.8756 30.1651 56.0494 30.1262 56.2085 30.0509C56.5265 29.8968 56.827 29.7089 57.1049 29.4905C57.7252 31.254 57.3361 33.2153 56.0897 34.6085L56.0609 34.6385C54.4975 36.332 52.0037 36.7897 49.9409 35.7617C49.7388 35.655 49.5447 35.5338 49.3601 35.3993C50.2439 34.1601 50.366 32.5324 49.6769 31.1753C49.4839 30.7922 49.1013 30.5412 48.6731 30.5167C48.2449 30.4923 47.8362 30.6981 47.6009 31.0567C47.3656 31.4153 47.3395 31.8722 47.5325 32.2553C47.9271 33.0484 47.6809 34.0109 46.9541 34.5173C46.5272 34.8015 45.9999 34.8913 45.503 34.7646C45.0061 34.6379 44.5863 34.3064 44.3477 33.8525C44.1558 33.469 43.7739 33.217 43.3459 33.1914C42.9179 33.1658 42.5087 33.3705 42.2725 33.7284C42.0363 34.0863 42.009 34.543 42.2009 34.9265C42.9046 36.3471 44.3547 37.2443 45.9401 37.2401C46.4562 37.2366 46.9671 37.136 47.4461 36.9437C47.8747 37.3189 48.3469 37.6412 48.8525 37.9037C50.5627 38.7902 52.5515 38.974 54.3953 38.4161C53.2094 40.0353 51.4346 41.1235 49.4537 41.4461C48.8374 41.5464 48.401 42.1026 48.4502 42.725C48.4994 43.3475 49.0177 43.8282 49.6421 43.8305C49.7059 43.8305 49.7697 43.8256 49.8329 43.8161C50.5636 43.6896 51.2777 43.4811 51.9617 43.1945C52.3313 43.8481 52.6314 44.5386 52.8569 45.2549C52.8982 45.3799 52.9192 45.5108 52.9193 45.6425C52.919 46.1611 52.6092 46.6296 52.1321 46.8329C51.5801 47.0464 50.9534 46.8779 50.5829 46.4165C49.6535 45.3251 48.4366 44.5165 47.0705 44.0825C44.4773 43.2137 43.4765 42.4373 43.0517 41.5925C43.6743 41.5148 44.2895 41.3864 44.8913 41.2085C45.3011 41.0824 45.6126 40.7473 45.7084 40.3293C45.8041 39.9114 45.6697 39.4741 45.3556 39.1821C45.0415 38.8902 44.5955 38.788 44.1857 38.9141C43.5123 39.1207 42.8173 39.2483 42.1145 39.2945C40.7605 39.4003 39.4002 39.1951 38.1377 38.6945C37.6636 38.5096 37.1245 38.6438 36.7925 39.0293C35.0453 41.0362 32.055 41.3773 29.9008 39.8154C27.7465 38.2535 27.141 35.3054 28.5053 33.0209C28.7263 32.652 28.7337 32.1932 28.5247 31.8173C28.3157 31.4415 27.9221 31.2057 27.4921 31.1987C27.0621 31.1918 26.6611 31.4148 26.4401 31.7837C26.1538 32.2709 25.9235 32.789 25.7537 33.3281C24.8087 33.2784 24.0636 32.5054 24.0485 31.5593V31.5293C24.0478 31.2126 23.9207 30.9094 23.6954 30.6869C23.47 30.4645 23.1651 30.3414 22.8485 30.3449C22.1829 30.3515 21.6471 30.8936 21.6485 31.5593C21.6538 33.6874 23.2587 35.4712 25.3745 35.7005C25.3788 36.1027 25.4153 36.504 25.4837 36.9005C22.8043 37.4802 20.0253 36.5171 18.2793 34.4037C16.5333 32.2903 16.1119 29.3795 17.1869 26.8577C17.4553 27.1293 17.755 27.3682 18.0797 27.5693C18.6465 27.9013 19.3751 27.7158 19.7141 27.1531C20.0531 26.5903 19.8766 25.8596 19.3181 25.5137V25.5185ZM14.0381 35.1581C14.5913 35.0765 15.1625 35.0045 15.7301 34.9301C17.9488 38.4756 22.1922 40.1972 26.2541 39.1997C27.3455 41.2711 29.3397 42.7156 31.6482 43.1069C33.9566 43.4981 36.3155 42.7914 38.0285 41.1953C38.844 41.4385 39.6839 41.5906 40.5329 41.6489C41.1125 43.8473 42.7877 45.1793 46.3073 46.3589C47.2561 46.6563 48.1025 47.2138 48.7505 47.9681C49.4708 48.8247 50.5305 49.3225 51.6497 49.3301C52.1391 49.3299 52.6236 49.2312 53.0741 49.0397C54.4343 48.4583 55.3167 47.1217 55.3169 45.6425C55.318 45.2567 55.2564 44.8733 55.1345 44.5073C54.8646 43.6594 54.5092 42.8412 54.0737 42.0653C56.1142 40.5984 57.5357 38.4244 58.0613 35.9669C58.3168 35.6632 58.548 35.3398 58.7525 34.9997C59.1545 35.0513 59.5565 35.0969 59.9609 35.1641L64.2929 61.2209C55.8251 58.3933 46.6679 58.3933 38.2001 61.2209V46.1993C38.2001 45.5365 37.6628 44.9993 37.0001 44.9993C36.3373 44.9993 35.8001 45.5365 35.8001 46.1993V61.2257C27.3332 58.3955 18.1762 58.3922 9.70726 61.2161L14.0381 35.1581ZM4.18126 66.1577C3.95452 65.8838 3.86209 65.5229 3.92926 65.1737L9.18406 38.1953H11.1041L7.33846 60.8261C7.20602 61.6498 7.50932 62.4834 8.14014 63.0294C8.77097 63.5754 9.63944 63.7561 10.4357 63.5069C16.8329 61.4343 23.6482 61.0019 30.2561 62.2493L29.8985 66.5993H5.11606C4.75405 66.5995 4.41098 66.4375 4.18126 66.1577ZM37.0001 68.9993C34.1093 68.9993 32.4509 68.1449 32.2073 67.7645L32.6201 62.7845C33.9396 63.113 35.2308 63.546 36.4817 64.0793C36.6434 64.1572 36.8205 64.1982 37.0001 64.1993C37.1801 64.199 37.3577 64.158 37.5197 64.0793C38.7697 63.5428 40.0606 63.1071 41.3801 62.7761L41.7929 67.7633C41.5493 68.1449 39.8909 68.9993 37.0001 68.9993ZM69.8189 66.1577C69.5891 66.4375 69.2461 66.5995 68.8841 66.5993H44.1053L43.7453 62.2409C50.3568 60.996 57.1751 61.4322 63.5741 63.5093C64.3701 63.7552 65.2367 63.572 65.8651 63.0249C66.4935 62.4779 66.7943 61.6448 66.6605 60.8225L62.8985 38.1965H64.8185L70.0745 65.1725C70.141 65.5226 70.0472 65.8841 69.8189 66.1577Z" fill="#2DC071"/>
<path d="M33.0233 27.8215C32.5321 28.2659 32.4939 29.0244 32.9381 29.5159C33.9561 30.6398 35.3014 31.4155 36.7841 31.7335C36.1126 32.6797 35.0236 33.2412 33.8633 33.2395C33.2006 33.2395 32.6633 33.7767 32.6633 34.4395C32.6633 35.1022 33.2006 35.6395 33.8633 35.6395C36.3475 35.6494 38.5765 34.1151 39.4541 31.7911C42.438 31.2966 44.8003 28.9998 45.3785 26.0311C45.4679 25.6064 45.321 25.1667 44.9944 24.8809C44.6679 24.5952 44.2125 24.508 43.8035 24.6529C43.3944 24.7978 43.0955 25.1523 43.0217 25.5799C42.7864 26.8176 42.0723 27.9124 41.0345 28.6267C39.038 29.9713 36.3604 29.6661 34.7177 27.9067C34.2733 27.4155 33.5148 27.3773 33.0233 27.8215Z" fill="#2DC071"/>
<path d="M28.8401 26.5198C29.5029 26.5198 30.0401 25.9825 30.0401 25.3198C30.0401 24.4923 30.3689 23.6987 30.954 23.1136C31.5391 22.5285 32.3327 22.1998 33.1601 22.1998C33.8229 22.1998 34.3601 21.6625 34.3601 20.9998C34.3601 20.3371 33.8229 19.7998 33.1601 19.7998C30.1129 19.8031 27.6434 22.2726 27.6401 25.3198C27.6401 25.6381 27.7666 25.9433 27.9916 26.1683C28.2167 26.3934 28.5219 26.5198 28.8401 26.5198Z" fill="#2DC071"/>
<path d="M38.1998 2.99961V1.79961C38.1998 1.13687 37.6625 0.599609 36.9998 0.599609C36.3371 0.599609 35.7998 1.13687 35.7998 1.79961V2.99961C35.7998 3.66235 36.3371 4.19961 36.9998 4.19961C37.6625 4.19961 38.1998 3.66235 38.1998 2.99961Z" fill="#2DC071"/>
<path d="M56.6924 9.2111L55.4924 10.4111C55.1804 10.7124 55.0553 11.1586 55.1651 11.5781C55.2749 11.9977 55.6026 12.3253 56.0221 12.4351C56.4417 12.545 56.8879 12.4198 57.1892 12.1079L58.3892 10.9079C58.7011 10.6066 58.8262 10.1604 58.7164 9.74089C58.6066 9.32134 58.2789 8.99368 57.8594 8.88387C57.4398 8.77405 56.9936 8.89915 56.6924 9.2111Z" fill="#2DC071"/>
<path d="M17.6599 12.4595C18.1452 12.4594 18.5826 12.167 18.7683 11.7187C18.954 11.2703 18.8514 10.7543 18.5083 10.4111L17.3083 9.2111C17.007 8.89915 16.5608 8.77405 16.1413 8.88387C15.7217 8.99368 15.3941 9.32134 15.2843 9.74089C15.1744 10.1604 15.2995 10.6066 15.6115 10.9079L16.8115 12.1079C17.0365 12.333 17.3417 12.4594 17.6599 12.4595Z" fill="#2DC071"/>
<path d="M26.8971 7.40934C27.0548 7.40901 27.2109 7.37803 27.3567 7.31814C27.6509 7.19631 27.8845 6.96259 28.0063 6.66844C28.128 6.37429 28.1279 6.04381 28.0059 5.74974L26.6271 2.42334C26.4692 2.0182 26.1044 1.73019 25.6737 1.67055C25.243 1.6109 24.8137 1.78894 24.5516 2.13592C24.2895 2.48291 24.2356 2.94453 24.4107 3.34254L25.7883 6.66894C25.9742 7.11725 26.4118 7.40947 26.8971 7.40934Z" fill="#2DC071"/>
<path d="M48.9403 1.77407C48.3283 1.52087 47.6269 1.81144 47.3731 2.42327L45.9943 5.74967C45.872 6.04387 45.8717 6.37466 45.9935 6.66909C46.1152 6.96353 46.3491 7.19745 46.6435 7.31927C46.7894 7.37916 46.9455 7.41013 47.1031 7.41047C47.5885 7.41059 48.0261 7.11838 48.2119 6.67007L49.5895 3.34367C49.7119 3.04947 49.7122 2.71869 49.5904 2.42425C49.4686 2.12981 49.2348 1.8959 48.9403 1.77407Z" fill="#2DC071"/>
<path d="M61.3903 21.6978C61.5481 21.6975 61.7043 21.6661 61.8499 21.6054L65.1751 20.2278C65.5712 20.0638 65.8498 19.701 65.9059 19.2759C65.9619 18.8508 65.7869 18.4282 65.4469 18.1671C65.1068 17.906 64.6532 17.8462 64.2571 18.0102L60.9307 19.3878C60.3999 19.6058 60.0977 20.1692 60.2097 20.732C60.3217 21.2948 60.8165 21.6995 61.3903 21.6978Z" fill="#2DC071"/>
<path d="M12.1506 21.6057C12.7629 21.8595 13.4651 21.5689 13.719 20.9565C13.9728 20.3441 13.6821 19.6419 13.0698 19.3881L9.74335 18.0105C9.13098 17.757 8.42905 18.0479 8.17555 18.6603C7.92205 19.2727 8.21297 19.9746 8.82535 20.2281L12.1506 21.6057Z" fill="#2DC071"/>
</g>
</g>
</g>
</g>
<defs>
<clipPath id="clip0_2699_565">
<rect width="72" height="72" fill="white" transform="translate(0.5)"/>
</clipPath>
<clipPath id="clip1_2699_565">
<rect width="72" height="72" fill="white" transform="translate(1)"/>
</clipPath>
<clipPath id="clip2_2699_565">
<rect width="70.9823" height="70.8" fill="white" transform="translate(1.50879 0.599609)"/>
</clipPath>
<clipPath id="clip3_2699_565">
<rect width="70.9823" height="70.8" fill="white" transform="translate(1.50879 0.599609)"/>
</clipPath>
</defs>
</svg>
