<svg width="72" height="72" viewBox="0 0 72 72" fill="none" xmlns="http://www.w3.org/2000/svg">
<g clip-path="url(#clip0_2699_566)">
<g clip-path="url(#clip1_2699_566)">
<g clip-path="url(#clip2_2699_566)">
<path d="M66.1717 37.7429C65.9548 36.613 64.9666 35.7959 63.8161 35.7953H61.4989L61.3285 34.7741C61.1585 33.7484 60.3504 32.947 59.3233 32.7857C59.0953 32.7497 58.8649 32.7257 58.6381 32.6945C59.031 30.8599 58.7046 28.9445 57.7261 27.3437C58.243 26.0026 58.1466 24.5024 57.462 23.2387C56.7775 21.9749 55.5737 21.0745 54.1681 20.7749C53.2694 15.9653 49.0852 12.4691 44.1925 12.4397C44.0725 12.4397 43.9657 12.4553 43.8517 12.4589C43.0699 11.2311 41.7809 10.4162 40.3365 10.2366C38.8921 10.0569 37.4428 10.5312 36.3841 11.5301C35.0503 10.6631 33.494 10.2009 31.9033 10.1993C29.3401 10.2098 26.9245 11.3994 25.3537 13.4249C23.6095 12.9163 21.7287 13.2286 20.2425 14.2735C18.7563 15.3185 17.826 16.9827 17.7145 18.7961C15.8825 19.5662 14.6904 21.3592 14.6893 23.3465C14.693 23.691 14.7332 24.0341 14.8093 24.3701C13.1891 26.8125 12.7658 29.8584 13.6585 32.6501C13.3369 32.6945 13.0081 32.7341 12.6985 32.7797C11.666 32.9354 10.8507 33.7372 10.6777 34.7669L10.5073 35.7917H8.18406C7.03548 35.7925 6.04847 36.6069 5.82966 37.7345L0.574864 64.7129C0.369646 65.7694 0.647932 66.8624 1.33344 67.6922C2.01895 68.5219 3.03976 69.0014 4.11606 68.9993H29.1409C30.1345 70.6385 33.1537 71.3993 36.0001 71.3993C38.8165 71.3993 41.8069 70.6565 42.8293 68.9993H67.8841C68.9601 69.0014 69.9807 68.522 70.6661 67.6925C71.3516 66.8631 71.6301 65.7705 71.4253 64.7141L66.1717 37.7429ZM18.3181 25.5185C17.3437 24.9326 16.8787 23.7697 17.1806 22.6736C17.4824 21.5775 18.4772 20.8165 19.6141 20.8121C20.4097 20.8097 21.1585 21.1879 21.6289 21.8297C21.8844 22.1739 22.3041 22.3557 22.73 22.3066C23.1559 22.2574 23.5233 21.9848 23.6936 21.5914C23.864 21.198 23.8116 20.7435 23.5561 20.3993C22.7412 19.3102 21.5064 18.6135 20.1529 18.4793C20.5106 16.7987 21.9926 15.5956 23.7109 15.5909C23.8573 15.5983 24.0031 15.6143 24.1477 15.6389C24.0511 15.8849 23.967 16.1356 23.8957 16.3901C23.7463 17.0253 24.1319 17.6634 24.7637 17.8266C25.3955 17.9898 26.0419 17.6182 26.2189 16.9901C26.3553 16.4627 26.565 15.9569 26.8417 15.4877C27.9061 13.7044 29.8265 12.6086 31.9033 12.5993C33.0335 12.6043 34.138 12.9378 35.0821 13.5593C34.9022 14.0646 34.8069 14.5961 34.8001 15.1325C34.8001 15.7952 35.3373 16.3325 36.0001 16.3325C36.6628 16.3325 37.2001 15.7952 37.2001 15.1325C37.2001 13.7384 38.3302 12.6083 39.7243 12.6083C41.1183 12.6083 42.2485 13.7384 42.2485 15.1325C42.2485 15.7952 42.7857 16.3325 43.4485 16.3325C44.1112 16.3325 44.6485 15.7952 44.6485 15.1325C44.6485 15.0401 44.6257 14.9525 44.6209 14.8601C48.0569 15.0721 50.9462 17.5145 51.7273 20.8673C51.1675 21.0302 50.6416 21.2924 50.1745 21.6413C49.8315 21.8985 49.6518 22.3192 49.7031 22.7448C49.7544 23.1705 50.0288 23.5364 50.4231 23.7048C50.8173 23.8732 51.2715 23.8185 51.6145 23.5613C52.5734 22.8513 53.898 22.9079 54.7929 23.6971C55.6877 24.4863 55.9094 25.7935 55.3249 26.8337C55.0636 27.293 54.6667 27.6602 54.1885 27.8849C53.687 28.1277 53.4186 28.6838 53.5405 29.2275C53.6624 29.7712 54.1425 30.1594 54.6997 30.1649C54.8756 30.1651 55.0494 30.1262 55.2085 30.0509C55.5265 29.8968 55.827 29.7089 56.1049 29.4905C56.7252 31.254 56.3361 33.2153 55.0897 34.6085L55.0609 34.6385C53.4975 36.332 51.0037 36.7897 48.9409 35.7617C48.7388 35.655 48.5447 35.5338 48.3601 35.3993C49.2439 34.1601 49.366 32.5324 48.6769 31.1753C48.4839 30.7922 48.1013 30.5412 47.6731 30.5167C47.2449 30.4923 46.8362 30.6981 46.6009 31.0567C46.3656 31.4153 46.3395 31.8722 46.5325 32.2553C46.9271 33.0484 46.6809 34.0109 45.9541 34.5173C45.5272 34.8015 44.9999 34.8913 44.503 34.7646C44.0061 34.6379 43.5863 34.3064 43.3477 33.8525C43.1558 33.469 42.7739 33.217 42.3459 33.1914C41.9179 33.1658 41.5087 33.3705 41.2725 33.7284C41.0363 34.0863 41.009 34.543 41.2009 34.9265C41.9046 36.3471 43.3547 37.2443 44.9401 37.2401C45.4562 37.2366 45.9671 37.136 46.4461 36.9437C46.8747 37.3189 47.3469 37.6412 47.8525 37.9037C49.5627 38.7902 51.5515 38.974 53.3953 38.4161C52.2094 40.0353 50.4346 41.1235 48.4537 41.4461C47.8374 41.5464 47.401 42.1026 47.4502 42.725C47.4994 43.3475 48.0177 43.8282 48.6421 43.8305C48.7059 43.8305 48.7697 43.8256 48.8329 43.8161C49.5636 43.6896 50.2777 43.4811 50.9617 43.1945C51.3313 43.8481 51.6314 44.5386 51.8569 45.2549C51.8982 45.3799 51.9192 45.5108 51.9193 45.6425C51.919 46.1611 51.6092 46.6296 51.1321 46.8329C50.5801 47.0464 49.9534 46.8779 49.5829 46.4165C48.6535 45.3251 47.4366 44.5165 46.0705 44.0825C43.4773 43.2137 42.4765 42.4373 42.0517 41.5925C42.6743 41.5148 43.2895 41.3864 43.8913 41.2085C44.3011 41.0824 44.6126 40.7473 44.7084 40.3293C44.8041 39.9114 44.6697 39.4741 44.3556 39.1821C44.0415 38.8902 43.5955 38.788 43.1857 38.9141C42.5123 39.1207 41.8173 39.2483 41.1145 39.2945C39.7605 39.4003 38.4002 39.1951 37.1377 38.6945C36.6636 38.5096 36.1245 38.6438 35.7925 39.0293C34.0453 41.0362 31.055 41.3773 28.9008 39.8154C26.7465 38.2535 26.141 35.3054 27.5053 33.0209C27.7263 32.652 27.7337 32.1932 27.5247 31.8173C27.3157 31.4415 26.9221 31.2057 26.4921 31.1987C26.0621 31.1918 25.6611 31.4148 25.4401 31.7837C25.1538 32.2709 24.9235 32.789 24.7537 33.3281C23.8087 33.2784 23.0636 32.5054 23.0485 31.5593V31.5293C23.0478 31.2126 22.9207 30.9094 22.6954 30.6869C22.47 30.4645 22.1651 30.3414 21.8485 30.3449C21.1829 30.3515 20.6471 30.8936 20.6485 31.5593C20.6538 33.6874 22.2587 35.4712 24.3745 35.7005C24.3788 36.1027 24.4153 36.504 24.4837 36.9005C21.8043 37.4802 19.0253 36.5171 17.2793 34.4037C15.5333 32.2903 15.1119 29.3795 16.1869 26.8577C16.4553 27.1293 16.755 27.3682 17.0797 27.5693C17.6465 27.9013 18.3751 27.7158 18.7141 27.1531C19.0531 26.5903 18.8766 25.8596 18.3181 25.5137V25.5185ZM13.0381 35.1581C13.5913 35.0765 14.1625 35.0045 14.7301 34.9301C16.9488 38.4756 21.1922 40.1972 25.2541 39.1997C26.3455 41.2711 28.3397 42.7156 30.6482 43.1069C32.9566 43.4981 35.3155 42.7914 37.0285 41.1953C37.844 41.4385 38.6839 41.5906 39.5329 41.6489C40.1125 43.8473 41.7877 45.1793 45.3073 46.3589C46.2561 46.6563 47.1025 47.2138 47.7505 47.9681C48.4708 48.8247 49.5305 49.3225 50.6497 49.3301C51.1391 49.3299 51.6236 49.2312 52.0741 49.0397C53.4343 48.4583 54.3167 47.1217 54.3169 45.6425C54.318 45.2567 54.2564 44.8733 54.1345 44.5073C53.8646 43.6594 53.5092 42.8412 53.0737 42.0653C55.1142 40.5984 56.5357 38.4244 57.0613 35.9669C57.3168 35.6632 57.548 35.3398 57.7525 34.9997C58.1545 35.0513 58.5565 35.0969 58.9609 35.1641L63.2929 61.2209C54.8251 58.3933 45.6679 58.3933 37.2001 61.2209V46.1993C37.2001 45.5365 36.6628 44.9993 36.0001 44.9993C35.3373 44.9993 34.8001 45.5365 34.8001 46.1993V61.2257C26.3332 58.3955 17.1762 58.3922 8.70726 61.2161L13.0381 35.1581ZM3.18126 66.1577C2.95452 65.8838 2.86209 65.5229 2.92926 65.1737L8.18406 38.1953H10.1041L6.33846 60.8261C6.20602 61.6498 6.50932 62.4834 7.14014 63.0294C7.77097 63.5754 8.63944 63.7561 9.43566 63.5069C15.8329 61.4343 22.6482 61.0019 29.2561 62.2493L28.8985 66.5993H4.11606C3.75405 66.5995 3.41098 66.4375 3.18126 66.1577ZM36.0001 68.9993C33.1093 68.9993 31.4509 68.1449 31.2073 67.7645L31.6201 62.7845C32.9396 63.113 34.2308 63.546 35.4817 64.0793C35.6434 64.1572 35.8205 64.1982 36.0001 64.1993C36.1801 64.199 36.3577 64.158 36.5197 64.0793C37.7697 63.5428 39.0606 63.1071 40.3801 62.7761L40.7929 67.7633C40.5493 68.1449 38.8909 68.9993 36.0001 68.9993ZM68.8189 66.1577C68.5891 66.4375 68.2461 66.5995 67.8841 66.5993H43.1053L42.7453 62.2409C49.3568 60.996 56.1751 61.4322 62.5741 63.5093C63.3701 63.7552 64.2367 63.572 64.8651 63.0249C65.4935 62.4779 65.7943 61.6448 65.6605 60.8225L61.8985 38.1965H63.8185L69.0745 65.1725C69.141 65.5226 69.0472 65.8841 68.8189 66.1577Z" fill="#2DC071"/>
<path d="M32.0233 27.8215C31.5321 28.2659 31.4939 29.0244 31.9381 29.5159C32.9561 30.6398 34.3014 31.4155 35.7841 31.7335C35.1126 32.6797 34.0236 33.2412 32.8633 33.2395C32.2006 33.2395 31.6633 33.7767 31.6633 34.4395C31.6633 35.1022 32.2006 35.6395 32.8633 35.6395C35.3475 35.6494 37.5765 34.1151 38.4541 31.7911C41.438 31.2966 43.8003 28.9998 44.3785 26.0311C44.4679 25.6064 44.321 25.1667 43.9944 24.8809C43.6679 24.5952 43.2125 24.508 42.8035 24.6529C42.3944 24.7978 42.0955 25.1523 42.0217 25.5799C41.7864 26.8176 41.0723 27.9124 40.0345 28.6267C38.038 29.9713 35.3604 29.6661 33.7177 27.9067C33.2733 27.4155 32.5148 27.3773 32.0233 27.8215Z" fill="#2DC071"/>
<path d="M27.8401 26.5198C28.5029 26.5198 29.0401 25.9825 29.0401 25.3198C29.0401 24.4923 29.3689 23.6987 29.954 23.1136C30.5391 22.5285 31.3327 22.1998 32.1601 22.1998C32.8229 22.1998 33.3601 21.6625 33.3601 20.9998C33.3601 20.3371 32.8229 19.7998 32.1601 19.7998C29.1129 19.8031 26.6434 22.2726 26.6401 25.3198C26.6401 25.6381 26.7666 25.9433 26.9916 26.1683C27.2167 26.3934 27.5219 26.5198 27.8401 26.5198Z" fill="#2DC071"/>
<path d="M37.1998 2.99961V1.79961C37.1998 1.13687 36.6625 0.599609 35.9998 0.599609C35.3371 0.599609 34.7998 1.13687 34.7998 1.79961V2.99961C34.7998 3.66235 35.3371 4.19961 35.9998 4.19961C36.6625 4.19961 37.1998 3.66235 37.1998 2.99961Z" fill="#2DC071"/>
<path d="M55.6924 9.2111L54.4924 10.4111C54.1804 10.7124 54.0553 11.1586 54.1651 11.5781C54.2749 11.9977 54.6026 12.3253 55.0221 12.4351C55.4417 12.545 55.8879 12.4198 56.1892 12.1079L57.3892 10.9079C57.7011 10.6066 57.8262 10.1604 57.7164 9.74089C57.6066 9.32134 57.2789 8.99368 56.8594 8.88387C56.4398 8.77405 55.9936 8.89915 55.6924 9.2111Z" fill="#2DC071"/>
<path d="M16.6599 12.4595C17.1452 12.4594 17.5826 12.167 17.7683 11.7187C17.954 11.2703 17.8514 10.7543 17.5083 10.4111L16.3083 9.2111C16.007 8.89915 15.5608 8.77405 15.1413 8.88387C14.7217 8.99368 14.3941 9.32134 14.2843 9.74089C14.1744 10.1604 14.2995 10.6066 14.6115 10.9079L15.8115 12.1079C16.0365 12.333 16.3417 12.4594 16.6599 12.4595Z" fill="#2DC071"/>
<path d="M25.8971 7.40934C26.0548 7.40901 26.2109 7.37803 26.3567 7.31814C26.6509 7.19631 26.8845 6.96259 27.0063 6.66844C27.128 6.37429 27.1279 6.04381 27.0059 5.74974L25.6271 2.42334C25.4692 2.0182 25.1044 1.73019 24.6737 1.67055C24.243 1.6109 23.8137 1.78894 23.5516 2.13592C23.2895 2.48291 23.2356 2.94453 23.4107 3.34254L24.7883 6.66894C24.9742 7.11725 25.4118 7.40947 25.8971 7.40934Z" fill="#2DC071"/>
<path d="M47.9403 1.77407C47.3283 1.52087 46.6269 1.81144 46.3731 2.42327L44.9943 5.74967C44.872 6.04387 44.8717 6.37466 44.9935 6.66909C45.1152 6.96353 45.3491 7.19745 45.6435 7.31927C45.7894 7.37916 45.9455 7.41013 46.1031 7.41047C46.5885 7.41059 47.0261 7.11838 47.2119 6.67007L48.5895 3.34367C48.7119 3.04947 48.7122 2.71869 48.5904 2.42425C48.4686 2.12981 48.2348 1.8959 47.9403 1.77407Z" fill="#2DC071"/>
<path d="M60.3903 21.6978C60.5481 21.6975 60.7043 21.6661 60.8499 21.6054L64.1751 20.2278C64.5712 20.0638 64.8498 19.701 64.9059 19.2759C64.9619 18.8508 64.7869 18.4282 64.4469 18.1671C64.1068 17.906 63.6532 17.8462 63.2571 18.0102L59.9307 19.3878C59.3999 19.6058 59.0977 20.1692 59.2097 20.732C59.3217 21.2948 59.8165 21.6995 60.3903 21.6978Z" fill="#2DC071"/>
<path d="M11.1506 21.6057C11.7629 21.8595 12.4651 21.5689 12.719 20.9565C12.9728 20.3441 12.6821 19.6419 12.0698 19.3881L8.74335 18.0105C8.13098 17.757 7.42905 18.0479 7.17555 18.6603C6.92205 19.2727 7.21297 19.9746 7.82535 20.2281L11.1506 21.6057Z" fill="#2DC071"/>
</g>
</g>
</g>
<defs>
<clipPath id="clip0_2699_566">
<rect width="72" height="72" fill="white"/>
</clipPath>
<clipPath id="clip1_2699_566">
<rect width="70.9823" height="70.8" fill="white" transform="translate(0.508789 0.599609)"/>
</clipPath>
<clipPath id="clip2_2699_566">
<rect width="70.9823" height="70.8" fill="white" transform="translate(0.508789 0.599609)"/>
</clipPath>
</defs>
</svg>
