<svg width="50" height="50" viewBox="0 0 50 50" fill="none" xmlns="http://www.w3.org/2000/svg">
<path d="M43.5547 37.6953H39.6484V33.7891C39.6484 33.5742 39.4727 33.3984 39.2578 33.3984H36.9141C36.6992 33.3984 36.5234 33.5742 36.5234 33.7891V37.6953H32.6172C32.4023 37.6953 32.2266 37.8711 32.2266 38.0859V40.4297C32.2266 40.6445 32.4023 40.8203 32.6172 40.8203H36.5234V44.7266C36.5234 44.9414 36.6992 45.1172 36.9141 45.1172H39.2578C39.4727 45.1172 39.6484 44.9414 39.6484 44.7266V40.8203H43.5547C43.7695 40.8203 43.9453 40.6445 43.9453 40.4297V38.0859C43.9453 37.8711 43.7695 37.6953 43.5547 37.6953ZM18.2373 24.3359C18.1934 23.9111 18.1689 23.4814 18.1689 23.0469C18.1689 22.2705 18.2422 21.5137 18.3789 20.7764C18.4131 20.6006 18.3203 20.4199 18.1592 20.3467C17.4951 20.0488 16.8848 19.6387 16.3574 19.1211C15.736 18.5186 15.2471 17.7932 14.9217 16.9911C14.5963 16.1891 14.4417 15.328 14.4678 14.4629C14.5117 12.8955 15.1416 11.4063 16.2402 10.2832C17.4463 9.04785 19.0674 8.37402 20.791 8.39356C22.3486 8.4082 23.8525 9.00879 24.9902 10.0732C25.376 10.4346 25.708 10.835 25.9863 11.2646C26.084 11.416 26.2744 11.4795 26.4404 11.4209C27.2998 11.123 28.208 10.9131 29.1406 10.8154C29.4141 10.7861 29.5703 10.4932 29.4482 10.249C27.8613 7.10938 24.6191 4.94141 20.8691 4.88281C15.459 4.79981 10.9473 9.23828 10.9473 14.6484C10.9473 17.7148 12.3584 20.4492 14.5703 22.2412C13.0176 22.959 11.5869 23.9502 10.3467 25.1904C7.6709 27.8613 6.15723 31.3867 6.05957 35.1514C6.05827 35.2035 6.06741 35.2553 6.08645 35.3039C6.1055 35.3524 6.13407 35.3966 6.17047 35.4339C6.20687 35.4712 6.25038 35.5009 6.29842 35.5211C6.34646 35.5414 6.39807 35.5518 6.4502 35.5518H9.18945C9.39941 35.5518 9.5752 35.3857 9.58008 35.1758C9.67285 32.3438 10.8203 29.6924 12.8369 27.6807C14.2725 26.2451 16.0303 25.249 17.9492 24.7656C18.1348 24.7119 18.2617 24.5313 18.2373 24.3359ZM40.2344 23.0469C40.2344 17.7051 35.9424 13.3643 30.6201 13.2813C25.21 13.1982 20.7031 17.6367 20.7031 23.0469C20.7031 26.1133 22.1191 28.8477 24.3262 30.6396C22.7574 31.3668 21.3292 32.3652 20.1074 33.5889C17.4316 36.2598 15.918 39.7852 15.8203 43.5449C15.819 43.597 15.8282 43.6489 15.8472 43.6974C15.8662 43.7459 15.8948 43.7902 15.9312 43.8275C15.9676 43.8648 16.0111 43.8944 16.0592 43.9147C16.1072 43.9349 16.1588 43.9453 16.2109 43.9453H18.9453C19.1553 43.9453 19.3311 43.7793 19.3359 43.5693C19.4287 40.7373 20.5762 38.0859 22.5928 36.0742C24.6973 33.9697 27.4902 32.8125 30.4688 32.8125C35.8594 32.8125 40.2344 28.4424 40.2344 23.0469ZM34.8877 27.4658C33.7061 28.6475 32.1387 29.2969 30.4688 29.2969C28.7988 29.2969 27.2314 28.6475 26.0498 27.4658C25.4601 26.8792 24.9942 26.1803 24.6797 25.4103C24.3652 24.6403 24.2084 23.8151 24.2188 22.9834C24.2334 21.3818 24.873 19.834 25.9912 18.6865C27.1631 17.4854 28.7305 16.8164 30.4053 16.7969C32.0605 16.7822 33.667 17.4268 34.8486 18.584C36.0596 19.7705 36.7236 21.3574 36.7236 23.0469C36.7188 24.7168 36.0693 26.2842 34.8877 27.4658Z" fill="#5E3462"/>
</svg>
