<svg width="147" height="73" viewBox="0 0 147 73" fill="none" xmlns="http://www.w3.org/2000/svg">
<g clip-path="url(#clip0_2689_2532)">
<g clip-path="url(#clip1_2689_2532)">
<path d="M104.926 28.1617C102.531 28.1617 100.423 29.1559 98.8747 30.7113C93.1747 26.7505 85.4949 24.2009 76.9848 23.9283L81.4075 3.9158L95.4898 7.09085C95.4898 10.5546 98.2999 13.3768 101.749 13.3768C105.261 13.3768 108.087 10.4744 108.087 7.01068C108.087 3.54698 105.277 0.644531 101.749 0.644531C99.2898 0.644531 97.1663 2.13585 96.1125 4.17237L80.5613 0.708674C79.7789 0.500211 79.0125 1.06146 78.805 1.8472L73.9512 23.9122C65.505 24.265 57.905 26.8147 52.189 30.7755C50.6403 29.1559 48.4529 28.1617 46.0579 28.1617C37.1806 28.1617 34.2747 40.1243 42.4016 44.2133C42.1142 45.4802 41.9865 46.8272 41.9865 48.1741C41.9865 61.612 57.0587 72.5002 75.5638 72.5002C94.1487 72.5002 109.221 61.612 109.221 48.1741C109.221 46.8272 109.077 45.416 108.726 44.1492C116.693 40.0441 113.755 28.1617 104.926 28.1617ZM55.2865 45.0632C55.2865 41.5354 58.0966 38.6971 61.6251 38.6971C65.0739 38.6971 67.884 41.5194 67.884 45.0632C67.884 48.5269 65.0739 51.3492 61.6251 51.3492C58.1125 51.3652 55.2865 48.5269 55.2865 45.0632ZM89.5024 60.0565C83.6907 65.8935 67.2932 65.8935 61.4814 60.0565C60.8428 59.4953 60.8428 58.5011 61.4814 57.8597C62.0403 57.2984 63.0302 57.2984 63.589 57.8597C68.0276 62.4298 82.7487 62.51 87.3789 57.8597C87.9377 57.2984 88.9276 57.2984 89.4865 57.8597C90.1411 58.5011 90.1411 59.4953 89.5024 60.0565ZM89.3747 51.3652C85.926 51.3652 83.1159 48.543 83.1159 45.0793C83.1159 41.5514 85.926 38.7131 89.3747 38.7131C92.8873 38.7131 95.7134 41.5354 95.7134 45.0793C95.6974 48.5269 92.8873 51.3652 89.3747 51.3652Z" fill="white"/>
</g>
</g>
<defs>
<clipPath id="clip0_2689_2532">
<rect width="151" height="72" fill="white" transform="translate(0 0.5)"/>
</clipPath>
<clipPath id="clip1_2689_2532">
<rect width="76" height="72" fill="white" transform="translate(37.5 0.5)"/>
</clipPath>
</defs>
</svg>
