<svg width="50" height="40" viewBox="0 0 50 40" fill="none" xmlns="http://www.w3.org/2000/svg">
<g clip-path="url(#clip0)">
<path d="M40.0039 4.73812C38.89 6.77777 37.5235 8.51648 35.9043 9.95424C35.9202 10.3398 35.9282 10.7757 35.9282 11.2617C35.9282 13.9623 35.6084 16.6662 34.9687 19.3734C34.3291 22.0805 33.352 24.6718 32.0374 27.1471C30.7229 29.6224 29.157 31.8153 27.3398 33.7258C25.5227 35.6363 23.3383 37.1596 20.7868 38.2958C18.2354 39.432 15.5008 40 12.5833 40C8.03004 40 3.83691 38.4868 0.00393677 35.4603C0.684244 35.5535 1.33672 35.6001 1.96135 35.6001C5.76525 35.6001 9.16275 34.1578 12.1538 31.273C10.3802 31.233 8.79186 30.5609 7.38868 29.2567C5.9855 27.9525 5.01986 26.286 4.49177 24.2572C5.01375 24.3796 5.52893 24.4408 6.03731 24.4408C6.76909 24.4408 7.48914 24.3233 8.19748 24.0883C6.30473 23.6216 4.73452 22.4611 3.48688 20.6067C2.23927 18.7523 1.61547 16.612 1.61547 14.1858V14.0607C2.77725 14.8526 4.01647 15.2738 5.33313 15.3244C4.21188 14.4042 3.3229 13.2042 2.66618 11.7244C2.00942 10.2447 1.68104 8.64332 1.68104 6.92036C1.68104 5.10321 2.05092 3.41111 2.79069 1.84404C4.84903 4.95356 7.34313 7.43879 10.273 9.29972C13.2029 11.1607 16.3462 12.1942 19.7027 12.4003C19.5596 11.6658 19.4879 10.8993 19.4876 10.1009C19.4876 7.31299 20.289 4.93253 21.8918 2.95952C23.4947 0.986507 25.4285 0 27.6931 0C30.0641 0 32.0612 1.06281 33.6845 3.18844C35.5391 2.7362 37.2756 1.91821 38.8941 0.73448C38.2706 3.15021 37.0691 5.01379 35.2896 6.3252C36.9251 6.08595 38.4965 5.55692 40.0039 4.73812H40.0039Z" fill="black"/>
</g>
<defs>
<clipPath id="clip0">
<rect width="49.25" height="40" fill="white"/>
</clipPath>
</defs>
</svg>
