<svg width="40" height="40" viewBox="0 0 40 40" fill="none" xmlns="http://www.w3.org/2000/svg">
<path d="M24.143 20.4341C24.143 18.2724 22.3761 16.5133 20.2045 16.5133C18.0331 16.5133 16.2663 18.2724 16.2663 20.4341C16.2663 22.5964 18.0331 24.3552 20.2045 24.3552C22.3761 24.3552 24.143 22.5964 24.143 20.4341ZM29.9942 0.0240479H10.0057C4.49861 0.0240479 0.0182495 4.48493 0.0182495 9.96793V12.7386H14.7148C16.2655 11.6387 18.1595 10.989 20.2045 10.989C22.2494 10.989 24.1437 11.6387 25.6945 12.7386H39.9816V9.96793C39.9816 4.48489 35.5012 0.0240479 29.9942 0.0240479ZM34.039 9.48145C34.039 10.0891 33.5398 10.5863 32.9293 10.5863H29.5005C28.8901 10.5863 28.3908 10.0891 28.3908 9.48145V6.06737C28.3908 5.45977 28.89 4.96249 29.5005 4.96249H32.9293C33.5398 4.96249 34.039 5.45969 34.039 6.06737V9.48145ZM29.6915 20.4341C29.6915 25.6427 25.4354 29.8794 20.2044 29.8794C14.9733 29.8794 10.7176 25.6427 10.7176 20.4341C10.7176 19.0002 11.042 17.6403 11.6189 16.4214H0.0182495V30.0319C0.0182495 35.5153 4.49861 39.9758 10.0057 39.9758H29.9942C35.5013 39.9758 39.9817 35.5153 39.9817 30.0319V16.4214H28.7902C29.3671 17.6403 29.6915 19.0002 29.6915 20.4341Z" fill="black"/>
</svg>
